<svg width="22" height="22" viewBox="0 0 22 22" fill="none" xmlns="http://www.w3.org/2000/svg">
<path d="M7.22367 5.6116V3.35894C7.22367 2.86618 7.61084 2.479 8.10361 2.479C8.59637 2.479 8.98355 2.86618 8.98355 3.35894V5.6116C8.98355 6.10436 8.59637 6.49154 8.10361 6.49154C7.61084 6.49154 7.22367 6.10436 7.22367 5.6116ZM13.7352 6.49154C14.228 6.49154 14.6152 6.10436 14.6152 5.6116V3.35894C14.6152 2.86618 14.228 2.479 13.7352 2.479C13.2425 2.479 12.8553 2.86618 12.8553 3.35894V5.6116C12.8553 6.10436 13.2425 6.49154 13.7352 6.49154ZM7.78683 9.51852H14.0344C14.4216 9.51852 14.7384 9.20174 14.7384 8.81457C14.7384 8.42739 14.4216 8.11062 14.0344 8.11062H7.78683C7.39966 8.11062 7.08288 8.42739 7.08288 8.81457C7.08288 9.20174 7.39966 9.51852 7.78683 9.51852ZM17.607 3.71092H16.1463C15.7591 3.71092 15.4423 4.0277 15.4423 4.41487C15.4423 4.80204 15.7591 5.11882 16.1463 5.11882H16.903V17.086H4.93583V5.11882H5.69257C6.07975 5.11882 6.39652 4.80204 6.39652 4.41487C6.39652 4.0277 6.07975 3.71092 5.69257 3.71092H4.23187C3.8447 3.71092 3.52792 4.09807 3.52792 4.48525V17.7899C3.52792 18.1771 3.8447 18.4939 4.23187 18.4939H17.607C17.9941 18.4939 18.3109 18.1771 18.3109 17.7899V4.48525C18.3109 4.09807 17.9941 3.71092 17.607 3.71092ZM10.3387 5.11882H11.5002C11.8873 5.11882 12.2041 4.80204 12.2041 4.41487C12.2041 4.0277 11.8873 3.71092 11.5002 3.71092H10.3387C9.95148 3.71092 9.6347 4.0277 9.6347 4.41487C9.6347 4.80204 9.95148 5.11882 10.3387 5.11882ZM7.78683 12.6863H14.0344C14.4216 12.6863 14.7384 12.3695 14.7384 11.9823C14.7384 11.5952 14.4216 11.2784 14.0344 11.2784H7.78683C7.39966 11.2784 7.08288 11.5952 7.08288 11.9823C7.08288 12.3695 7.39966 12.6863 7.78683 12.6863Z" fill="white"/>
</svg>
