<svg width="22" height="22" viewBox="0 0 22 22" fill="none" xmlns="http://www.w3.org/2000/svg">
<path d="M7.31824 5.61135V3.3587C7.31824 2.86593 7.70542 2.47876 8.19818 2.47876C8.69095 2.47876 9.07812 2.86593 9.07812 3.3587V5.61135C9.07812 6.10412 8.69095 6.49129 8.19818 6.49129C7.70542 6.49129 7.31824 6.10412 7.31824 5.61135ZM13.8298 6.49129C14.3226 6.49129 14.7097 6.10412 14.7097 5.61135V3.3587C14.7097 2.86593 14.3226 2.47876 13.8298 2.47876C13.337 2.47876 12.9499 2.86593 12.9499 3.3587V5.61135C12.9499 6.10412 13.337 6.49129 13.8298 6.49129ZM7.88141 9.51827H14.129C14.5161 9.51827 14.8329 9.2015 14.8329 8.81432C14.8329 8.42715 14.5161 8.11037 14.129 8.11037H7.88141C7.49423 8.11037 7.17745 8.42715 7.17745 8.81432C7.17745 9.2015 7.49423 9.51827 7.88141 9.51827ZM17.7015 3.71067H16.2408C15.8537 3.71067 15.5369 4.02745 15.5369 4.41463C15.5369 4.8018 15.8537 5.11858 16.2408 5.11858H16.9976V17.0858H5.0304V5.11858H5.78715C6.17432 5.11858 6.4911 4.8018 6.4911 4.41463C6.4911 4.02745 6.17432 3.71067 5.78715 3.71067H4.32645C3.93928 3.71067 3.6225 4.09783 3.6225 4.485V17.7897C3.6225 18.1769 3.93928 18.4937 4.32645 18.4937H17.7015C18.0887 18.4937 18.4055 18.1769 18.4055 17.7897V4.485C18.4055 4.09783 18.0887 3.71067 17.7015 3.71067ZM10.4332 5.11858H11.5947C11.9819 5.11858 12.2987 4.8018 12.2987 4.41463C12.2987 4.02745 11.9819 3.71067 11.5947 3.71067H10.4332C10.0461 3.71067 9.72928 4.02745 9.72928 4.41463C9.72928 4.8018 10.0461 5.11858 10.4332 5.11858ZM7.88141 12.6861H14.129C14.5161 12.6861 14.8329 12.3693 14.8329 11.9821C14.8329 11.5949 14.5161 11.2782 14.129 11.2782H7.88141C7.49423 11.2782 7.17745 11.5949 7.17745 11.9821C7.17745 12.3693 7.49423 12.6861 7.88141 12.6861Z" fill="white"/>
</svg>
