<svg width="14" height="22" viewBox="0 0 14 22" fill="none" xmlns="http://www.w3.org/2000/svg">
<path d="M7.50666 5.61135V3.3587C7.50666 2.86593 7.89383 2.47876 8.3866 2.47876C8.87936 2.47876 9.26654 2.86593 9.26654 3.3587V5.61135C9.26654 6.10412 8.87936 6.49129 8.3866 6.49129C7.89383 6.49129 7.50666 6.10412 7.50666 5.61135ZM14.0182 6.49129C14.511 6.49129 14.8981 6.10412 14.8981 5.61135V3.3587C14.8981 2.86593 14.511 2.47876 14.0182 2.47876C13.5254 2.47876 13.1383 2.86593 13.1383 3.3587V5.61135C13.1383 6.10412 13.5254 6.49129 14.0182 6.49129ZM8.06982 9.51827H14.3174C14.7046 9.51827 15.0213 9.2015 15.0213 8.81432C15.0213 8.42715 14.7046 8.11037 14.3174 8.11037H8.06982C7.68265 8.11037 7.36587 8.42715 7.36587 8.81432C7.36587 9.2015 7.68265 9.51827 8.06982 9.51827ZM17.8899 3.71067H16.4292C16.0421 3.71067 15.7253 4.02745 15.7253 4.41463C15.7253 4.8018 16.0421 5.11858 16.4292 5.11858H17.186V17.0858H5.21882V5.11858H5.97556C6.36273 5.11858 6.67951 4.8018 6.67951 4.41463C6.67951 4.02745 6.36273 3.71067 5.97556 3.71067H4.51486C4.12769 3.71067 3.81091 4.09783 3.81091 4.485V17.7897C3.81091 18.1769 4.12769 18.4937 4.51486 18.4937H17.8899C18.2771 18.4937 18.5939 18.1769 18.5939 17.7897V4.485C18.5939 4.09783 18.2771 3.71067 17.8899 3.71067ZM10.6216 5.11858H11.7832C12.1703 5.11858 12.4871 4.8018 12.4871 4.41463C12.4871 4.02745 12.1703 3.71067 11.7832 3.71067H10.6216C10.2345 3.71067 9.91769 4.02745 9.91769 4.41463C9.91769 4.8018 10.2345 5.11858 10.6216 5.11858ZM8.06982 12.6861H14.3174C14.7046 12.6861 15.0213 12.3693 15.0213 11.9821C15.0213 11.5949 14.7046 11.2782 14.3174 11.2782H8.06982C7.68265 11.2782 7.36587 11.5949 7.36587 11.9821C7.36587 12.3693 7.68265 12.6861 8.06982 12.6861Z" fill="white"/>
</svg>
