<svg width="22" height="22" viewBox="0 0 22 22" fill="none" xmlns="http://www.w3.org/2000/svg">
<path d="M7.41169 5.61135V3.3587C7.41169 2.86593 7.79886 2.47876 8.29163 2.47876C8.78439 2.47876 9.17157 2.86593 9.17157 3.3587V5.61135C9.17157 6.10412 8.78439 6.49129 8.29163 6.49129C7.79886 6.49129 7.41169 6.10412 7.41169 5.61135ZM13.9232 6.49129C14.416 6.49129 14.8032 6.10412 14.8032 5.61135V3.3587C14.8032 2.86593 14.416 2.47876 13.9232 2.47876C13.4305 2.47876 13.0433 2.86593 13.0433 3.3587V5.61135C13.0433 6.10412 13.4305 6.49129 13.9232 6.49129ZM7.97485 9.51827H14.2224C14.6096 9.51827 14.9264 9.2015 14.9264 8.81432C14.9264 8.42715 14.6096 8.11037 14.2224 8.11037H7.97485C7.58768 8.11037 7.2709 8.42715 7.2709 8.81432C7.2709 9.2015 7.58768 9.51827 7.97485 9.51827ZM17.795 3.71067H16.3343C15.9471 3.71067 15.6303 4.02745 15.6303 4.41463C15.6303 4.8018 15.9471 5.11858 16.3343 5.11858H17.091V17.0858H5.12385V5.11858H5.88059C6.26776 5.11858 6.58454 4.8018 6.58454 4.41463C6.58454 4.02745 6.26776 3.71067 5.88059 3.71067H4.41989C4.03272 3.71067 3.71594 4.09783 3.71594 4.485V17.7897C3.71594 18.1769 4.03272 18.4937 4.41989 18.4937H17.795C18.1821 18.4937 18.4989 18.1769 18.4989 17.7897V4.485C18.4989 4.09783 18.1821 3.71067 17.795 3.71067ZM10.5267 5.11858H11.6882C12.0754 5.11858 12.3921 4.8018 12.3921 4.41463C12.3921 4.02745 12.0754 3.71067 11.6882 3.71067H10.5267C10.1395 3.71067 9.82272 4.02745 9.82272 4.41463C9.82272 4.8018 10.1395 5.11858 10.5267 5.11858ZM7.97485 12.6861H14.2224C14.6096 12.6861 14.9264 12.3693 14.9264 11.9821C14.9264 11.5949 14.6096 11.2782 14.2224 11.2782H7.97485C7.58768 11.2782 7.2709 11.5949 7.2709 11.9821C7.2709 12.3693 7.58768 12.6861 7.97485 12.6861Z" fill="white"/>
</svg>
