<svg width="37" height="36" viewBox="0 0 37 36" fill="none" xmlns="http://www.w3.org/2000/svg">
<rect x="0.599976" width="36" height="36" rx="18" fill="#F4F4F4"/>
<g clip-path="url(#clip0_1290_917)">
<g clip-path="url(#clip1_1290_917)">
<path d="M14.8027 12.7488C14.8025 13.1466 14.6443 13.5281 14.3629 13.8092C14.0814 14.0904 13.6998 14.2483 13.302 14.2481C12.9042 14.2479 12.5227 14.0896 12.2415 13.8082C11.9604 13.5267 11.8025 13.1451 11.8027 12.7473C11.8029 12.3495 11.9612 11.968 12.2426 11.6869C12.524 11.4057 12.9057 11.2478 13.3035 11.248C13.7013 11.2482 14.0828 11.4065 14.3639 11.6879C14.6451 11.9694 14.8029 12.351 14.8027 12.7488ZM14.8477 15.3588H11.8477V24.7488H14.8477V15.3588ZM19.5877 15.3588H16.6027V24.7488H19.5578V19.8213C19.5578 17.0763 23.1353 16.8213 23.1353 19.8213V24.7488H26.0977V18.8013C26.0977 14.1738 20.8027 14.3463 19.5578 16.6188L19.5877 15.3588Z" fill="#23075F"/>
</g>
</g>
<defs>
<clipPath id="clip0_1290_917">
<rect width="18" height="18" fill="white" transform="translate(9.59998 9)"/>
</clipPath>
<clipPath id="clip1_1290_917">
<rect width="18" height="18" fill="white" transform="translate(9.59998 9)"/>
</clipPath>
</defs>
</svg>
