<svg width="37" height="36" viewBox="0 0 37 36" fill="none" xmlns="http://www.w3.org/2000/svg">
<rect x="0.400024" width="36" height="36" rx="18" fill="#F4F4F4"/>
<g clip-path="url(#clip0_1290_923)">
<g clip-path="url(#clip1_1290_923)">
<path d="M18.3993 10.4995C20.4371 10.4995 20.6913 10.507 21.4908 10.5445C22.2895 10.582 22.8333 10.7073 23.3118 10.8933C23.8068 11.0838 24.2238 11.3418 24.6408 11.758C25.0222 12.1329 25.3173 12.5865 25.5056 13.087C25.6908 13.5648 25.8168 14.1093 25.8543 14.908C25.8895 15.7075 25.8993 15.9618 25.8993 17.9995C25.8993 20.0373 25.8918 20.2915 25.8543 21.091C25.8168 21.8897 25.6908 22.4335 25.5056 22.912C25.3178 23.4128 25.0226 23.8665 24.6408 24.241C24.2657 24.6222 23.8123 24.9173 23.3118 25.1058C22.834 25.291 22.2895 25.417 21.4908 25.4545C20.6913 25.4897 20.4371 25.4995 18.3993 25.4995C16.3615 25.4995 16.1073 25.492 15.3078 25.4545C14.509 25.417 13.9653 25.291 13.4868 25.1058C12.986 24.9179 12.5324 24.6227 12.1578 24.241C11.7764 23.8661 11.4812 23.4126 11.293 22.912C11.107 22.4342 10.9818 21.8897 10.9443 21.091C10.909 20.2915 10.8993 20.0373 10.8993 17.9995C10.8993 15.9618 10.9068 15.7075 10.9443 14.908C10.9818 14.1085 11.107 13.5655 11.293 13.087C11.4807 12.5862 11.7759 12.1325 12.1578 11.758C12.5325 11.3764 12.9861 11.0813 13.4868 10.8933C13.9653 10.7073 14.5083 10.582 15.3078 10.5445C16.1073 10.5093 16.3615 10.4995 18.3993 10.4995ZM18.3993 14.2495C17.4047 14.2495 16.4509 14.6446 15.7476 15.3479C15.0444 16.0511 14.6493 17.005 14.6493 17.9995C14.6493 18.9941 15.0444 19.9479 15.7476 20.6512C16.4509 21.3544 17.4047 21.7495 18.3993 21.7495C19.3939 21.7495 20.3477 21.3544 21.0509 20.6512C21.7542 19.9479 22.1493 18.9941 22.1493 17.9995C22.1493 17.005 21.7542 16.0511 21.0509 15.3479C20.3477 14.6446 19.3939 14.2495 18.3993 14.2495ZM23.2743 14.062C23.2743 13.8134 23.1755 13.5749 22.9997 13.3991C22.8238 13.2233 22.5854 13.1245 22.3368 13.1245C22.0882 13.1245 21.8497 13.2233 21.6739 13.3991C21.4981 13.5749 21.3993 13.8134 21.3993 14.062C21.3993 14.3107 21.4981 14.5491 21.6739 14.7249C21.8497 14.9007 22.0882 14.9995 22.3368 14.9995C22.5854 14.9995 22.8238 14.9007 22.9997 14.7249C23.1755 14.5491 23.2743 14.3107 23.2743 14.062ZM18.3993 15.7495C18.9961 15.7495 19.5684 15.9866 19.9903 16.4085C20.4122 16.8305 20.6493 17.4028 20.6493 17.9995C20.6493 18.5963 20.4122 19.1686 19.9903 19.5905C19.5684 20.0124 18.9961 20.2495 18.3993 20.2495C17.8026 20.2495 17.2303 20.0124 16.8083 19.5905C16.3863 19.1686 16.1493 18.5963 16.1493 17.9995C16.1493 17.4028 16.3863 16.8305 16.8083 16.4085C17.2303 15.9866 17.8026 15.7495 18.3993 15.7495Z" fill="#23075F"/>
</g>
</g>
<defs>
<clipPath id="clip0_1290_923">
<rect width="18" height="18" fill="white" transform="translate(9.40002 9)"/>
</clipPath>
<clipPath id="clip1_1290_923">
<rect width="18" height="18" fill="white" transform="translate(9.40002 9)"/>
</clipPath>
</defs>
</svg>
