<svg width="37" height="36" viewBox="0 0 37 36" fill="none" xmlns="http://www.w3.org/2000/svg">
<rect x="0.800049" width="36" height="36" rx="18" fill="#F4F4F4"/>
<g clip-path="url(#clip0_1290_911)">
<g clip-path="url(#clip1_1290_911)">
<path d="M26.419 13.2422C25.8464 13.4955 25.2392 13.6618 24.6175 13.7357C25.2728 13.3438 25.7633 12.7269 25.9974 12.0002C25.3825 12.3662 24.7082 12.6227 24.0055 12.7614C23.5334 12.2564 22.9077 11.9214 22.2257 11.8086C21.5436 11.6958 20.8434 11.8116 20.2339 12.1378C19.6244 12.464 19.1397 12.9824 18.8553 13.6125C18.5708 14.2426 18.5025 14.949 18.661 15.6219C17.4138 15.5594 16.1937 15.2353 15.0799 14.6707C13.9661 14.106 12.9836 13.3135 12.196 12.3444C11.9172 12.8233 11.7707 13.3676 11.7715 13.9217C11.7715 15.0092 12.325 15.9699 13.1665 16.5324C12.6685 16.5168 12.1814 16.3823 11.746 16.1402V16.1792C11.7461 16.9035 11.9967 17.6054 12.4554 18.1659C12.914 18.7266 13.5523 19.1113 14.2622 19.2549C13.7999 19.3802 13.3152 19.3987 12.8447 19.3089C13.0449 19.9324 13.435 20.4776 13.9604 20.8683C14.4859 21.259 15.1203 21.4755 15.775 21.4877C15.1243 21.9987 14.3793 22.3764 13.5826 22.5993C12.7859 22.8222 11.9531 22.8859 11.1317 22.7867C12.5655 23.7088 14.2345 24.1983 15.9392 24.1967C21.7089 24.1967 24.8643 19.4169 24.8643 15.2717C24.8643 15.1367 24.8605 15.0002 24.8544 14.8667C25.4686 14.4228 25.9987 13.873 26.4197 13.2429L26.419 13.2422Z" fill="#23075F"/>
</g>
</g>
<defs>
<clipPath id="clip0_1290_911">
<rect width="18" height="18" fill="white" transform="translate(9.80005 9)"/>
</clipPath>
<clipPath id="clip1_1290_911">
<rect width="18" height="18" fill="white" transform="translate(9.80005 9)"/>
</clipPath>
</defs>
</svg>
