<svg width="22" height="22" viewBox="0 0 22 22" fill="none" xmlns="http://www.w3.org/2000/svg">
<path d="M4.66712 14.991C3.69039 13.3445 3.34834 11.398 3.70518 9.51715C4.06202 7.63628 5.09321 5.95037 6.60511 4.77599C8.11701 3.60162 10.0056 3.01956 11.9163 3.13913C13.827 3.25869 15.6283 4.07165 16.982 5.42535C18.3357 6.77905 19.1487 8.58036 19.2683 10.491C19.3878 12.4017 18.8058 14.2903 17.6314 15.8023C16.4571 17.3142 14.7711 18.3454 12.8903 18.7022C11.0094 19.0591 9.06297 18.717 7.41644 17.7403L7.41646 17.7402L4.7013 18.516C4.58896 18.5481 4.47009 18.5495 4.35699 18.5202C4.2439 18.4909 4.14069 18.4319 4.05808 18.3493C3.97547 18.2667 3.91645 18.1635 3.88715 18.0504C3.85784 17.9373 3.85932 17.8184 3.89141 17.7061L4.66717 14.9909L4.66712 14.991Z" stroke="#0B63E5" stroke-width="1.31023" stroke-linecap="round" stroke-linejoin="round"/>
<path d="M11.4288 11.9614C11.9715 11.9614 12.4114 11.5215 12.4114 10.9788C12.4114 10.4361 11.9715 9.99609 11.4288 9.99609C10.8861 9.99609 10.4461 10.4361 10.4461 10.9788C10.4461 11.5215 10.8861 11.9614 11.4288 11.9614Z" fill="#0B63E5"/>
<path d="M7.49811 11.9614C8.04083 11.9614 8.48078 11.5215 8.48078 10.9788C8.48078 10.4361 8.04083 9.99609 7.49811 9.99609C6.9554 9.99609 6.51544 10.4361 6.51544 10.9788C6.51544 11.5215 6.9554 11.9614 7.49811 11.9614Z" fill="#0B63E5"/>
<path d="M15.3594 11.9614C15.9022 11.9614 16.3421 11.5215 16.3421 10.9788C16.3421 10.4361 15.9022 9.99609 15.3594 9.99609C14.8167 9.99609 14.3768 10.4361 14.3768 10.9788C14.3768 11.5215 14.8167 11.9614 15.3594 11.9614Z" fill="#0B63E5"/>
</svg>
