<svg width="22" height="22" viewBox="0 0 22 22" fill="none" xmlns="http://www.w3.org/2000/svg">
<path d="M4.34583 14.991C3.3691 13.3445 3.02705 11.398 3.38389 9.51715C3.74073 7.63628 4.77192 5.95037 6.28382 4.77599C7.79572 3.60162 9.68434 3.01956 11.595 3.13913C13.5057 3.25869 15.307 4.07165 16.6607 5.42535C18.0144 6.77905 18.8274 8.58036 18.947 10.491C19.0665 12.4017 18.4845 14.2903 17.3101 15.8023C16.1358 17.3142 14.4499 18.3454 12.569 18.7022C10.6881 19.0591 8.74168 18.717 7.09515 17.7403L7.09517 17.7402L4.38001 18.516C4.26767 18.5481 4.1488 18.5495 4.0357 18.5202C3.92261 18.4909 3.81941 18.4319 3.73679 18.3493C3.65418 18.2667 3.59517 18.1635 3.56586 18.0504C3.53655 17.9373 3.53803 17.8184 3.57012 17.7061L4.34589 14.9909L4.34583 14.991Z" stroke="#B4BBC5" stroke-width="1.31023" stroke-linecap="round" stroke-linejoin="round"/>
<path d="M11.1075 11.9614C11.6503 11.9614 12.0902 11.5215 12.0902 10.9788C12.0902 10.4361 11.6503 9.99609 11.1075 9.99609C10.5648 9.99609 10.1249 10.4361 10.1249 10.9788C10.1249 11.5215 10.5648 11.9614 11.1075 11.9614Z" fill="#B4BBC5"/>
<path d="M7.17685 11.9614C7.71957 11.9614 8.15952 11.5215 8.15952 10.9788C8.15952 10.4361 7.71957 9.99609 7.17685 9.99609C6.63414 9.99609 6.19418 10.4361 6.19418 10.9788C6.19418 11.5215 6.63414 11.9614 7.17685 11.9614Z" fill="#B4BBC5"/>
<path d="M15.0382 11.9614C15.581 11.9614 16.0209 11.5215 16.0209 10.9788C16.0209 10.4361 15.581 9.99609 15.0382 9.99609C14.4955 9.99609 14.0556 10.4361 14.0556 10.9788C14.0556 11.5215 14.4955 11.9614 15.0382 11.9614Z" fill="#B4BBC5"/>
</svg>
