<svg width="22" height="22" viewBox="0 0 22 22" fill="none" xmlns="http://www.w3.org/2000/svg">
<path d="M3.98834 14.991C3.01162 13.3445 2.66957 11.398 3.02641 9.51715C3.38325 7.63628 4.41443 5.95037 5.92634 4.77599C7.43824 3.60162 9.32685 3.01956 11.2375 3.13913C13.1482 3.25869 14.9495 4.07165 16.3032 5.42535C17.6569 6.77905 18.4699 8.58036 18.5895 10.491C18.7091 12.4017 18.127 14.2903 16.9526 15.8023C15.7783 17.3142 14.0924 18.3454 12.2115 18.7022C10.3306 19.0591 8.38419 18.717 6.73767 17.7403L6.73769 17.7402L4.02252 18.516C3.91019 18.5481 3.79131 18.5495 3.67822 18.5202C3.56512 18.4909 3.46192 18.4319 3.37931 18.3493C3.2967 18.2667 3.23768 18.1635 3.20838 18.0504C3.17907 17.9373 3.18054 17.8184 3.21264 17.7061L3.9884 14.9909L3.98834 14.991Z" stroke="#B4BBC5" stroke-width="1.31023" stroke-linecap="round" stroke-linejoin="round"/>
<path d="M10.75 11.9614C11.2927 11.9614 11.7327 11.5215 11.7327 10.9788C11.7327 10.4361 11.2927 9.99609 10.75 9.99609C10.2073 9.99609 9.76733 10.4361 9.76733 10.9788C9.76733 11.5215 10.2073 11.9614 10.75 11.9614Z" fill="#B4BBC5"/>
<path d="M6.81934 11.9614C7.36205 11.9614 7.80201 11.5215 7.80201 10.9788C7.80201 10.4361 7.36205 9.99609 6.81934 9.99609C6.27663 9.99609 5.83667 10.4361 5.83667 10.9788C5.83667 11.5215 6.27663 11.9614 6.81934 11.9614Z" fill="#B4BBC5"/>
<path d="M14.6807 11.9614C15.2234 11.9614 15.6633 11.5215 15.6633 10.9788C15.6633 10.4361 15.2234 9.99609 14.6807 9.99609C14.138 9.99609 13.698 10.4361 13.698 10.9788C13.698 11.5215 14.138 11.9614 14.6807 11.9614Z" fill="#B4BBC5"/>
</svg>
