<svg width="22" height="21" viewBox="0 0 22 21" fill="none" xmlns="http://www.w3.org/2000/svg">
<path d="M13.1697 18.5147C11.0035 18.5147 7.59686 17.7985 6.75831 17.2045C6.56615 17.0648 6.46134 16.8551 6.46134 16.628V9.79737C6.46134 9.58773 6.56616 9.3781 6.72338 9.25581C6.77579 9.22087 7.99867 8.26003 9.27396 7.54377C10.8637 6.67029 11.9643 5.44742 12.2263 4.67876C12.5408 3.73539 12.995 2.44263 14.4275 2.44263C15.1088 2.44263 15.6679 2.82696 15.9648 3.49081C16.5588 4.85345 15.9299 6.74017 14.8817 8.22509C15.5805 8.38232 16.454 8.60942 16.9781 8.76665C17.9389 9.06363 18.5678 9.76244 18.7076 10.6185C18.8299 11.4919 18.3931 12.3829 17.4672 13.0642C16.7859 14.8985 15.6155 17.7985 14.7594 18.2702C14.4275 18.4449 13.851 18.5147 13.1697 18.5147ZM7.85891 16.2088C9.18661 16.7678 13.2745 17.3443 14.0432 17.0473C14.445 16.6804 15.4757 14.3395 16.192 12.3654C16.2444 12.2257 16.3317 12.1034 16.454 12.016C17.0305 11.6317 17.3275 11.1775 17.2751 10.7932C17.2227 10.4787 16.9432 10.2166 16.5239 10.0769C15.6504 9.79736 13.4842 9.32569 13.4492 9.32569C13.2046 9.27328 13.0125 9.09857 12.9251 8.854C12.8378 8.60942 12.9076 8.34739 13.0823 8.1727C14.6546 6.47814 14.9341 4.74862 14.6372 4.04983C14.5498 3.84019 14.445 3.8402 14.3926 3.8402C14.0432 3.8402 13.886 4.08478 13.5191 5.13296C13.0998 6.35584 11.6498 7.82329 9.92034 8.76665C9.08179 9.22086 8.24324 9.83231 7.82397 10.1468V16.2088H7.85891ZM5.09869 16.6979V9.72748C5.09869 9.09857 4.59207 8.59195 3.96316 8.59195C3.33425 8.59195 2.82763 9.09857 2.82763 9.72748V16.6979C2.82763 17.3268 3.33425 17.8334 3.96316 17.8334C4.5746 17.8334 5.09869 17.3093 5.09869 16.6979Z" fill="#0B63E5"/>
</svg>
