<svg width="22" height="21" viewBox="0 0 22 21" fill="none" xmlns="http://www.w3.org/2000/svg">
<path d="M13.8485 18.5147C11.6823 18.5147 8.27568 17.7985 7.43713 17.2045C7.24497 17.0648 7.14016 16.8551 7.14016 16.628V9.79737C7.14016 9.58773 7.24497 9.3781 7.4022 9.25581C7.45461 9.22087 8.67748 8.26003 9.95277 7.54377C11.5425 6.67029 12.6431 5.44742 12.9052 4.67876C13.2196 3.73539 13.6738 2.44263 15.1063 2.44263C15.7877 2.44263 16.3467 2.82696 16.6437 3.49081C17.2376 4.85345 16.6087 6.74017 15.5605 8.22509C16.2593 8.38232 17.1328 8.60942 17.6569 8.76665C18.6177 9.06363 19.2467 9.76244 19.3864 10.6185C19.5087 11.4919 19.072 12.3829 18.1461 13.0642C17.4647 14.8985 16.2943 17.7985 15.4383 18.2702C15.1063 18.4449 14.5298 18.5147 13.8485 18.5147ZM8.53773 16.2088C9.86543 16.7678 13.9533 17.3443 14.722 17.0473C15.1238 16.6804 16.1545 14.3395 16.8708 12.3654C16.9232 12.2257 17.0105 12.1034 17.1328 12.016C17.7093 11.6317 18.0063 11.1775 17.9539 10.7932C17.9015 10.4787 17.622 10.2166 17.2027 10.0769C16.3292 9.79736 14.163 9.32569 14.128 9.32569C13.8835 9.27328 13.6913 9.09857 13.6039 8.854C13.5166 8.60942 13.5865 8.34739 13.7612 8.1727C15.3334 6.47814 15.613 4.74862 15.316 4.04983C15.2286 3.84019 15.1238 3.8402 15.0714 3.8402C14.722 3.8402 14.5648 4.08478 14.1979 5.13296C13.7786 6.35584 12.3287 7.82329 10.5992 8.76665C9.76061 9.22086 8.92206 9.83231 8.50279 10.1468V16.2088H8.53773ZM5.77751 16.6979V9.72748C5.77751 9.09857 5.27089 8.59195 4.64198 8.59195C4.01307 8.59195 3.50645 9.09857 3.50645 9.72748V16.6979C3.50645 17.3268 4.01307 17.8334 4.64198 17.8334C5.25342 17.8334 5.77751 17.3093 5.77751 16.6979Z" fill="#B4BBC5"/>
</svg>
