<svg width="22" height="21" viewBox="0 0 22 21" fill="none" xmlns="http://www.w3.org/2000/svg">
<path d="M13.4909 18.5147C11.3247 18.5147 7.91809 17.7985 7.07954 17.2045C6.88738 17.0648 6.78257 16.8551 6.78257 16.628V9.79737C6.78257 9.58773 6.88738 9.3781 7.04461 9.25581C7.09702 9.22087 8.3199 8.26003 9.59518 7.54377C11.1849 6.67029 12.2855 5.44742 12.5476 4.67876C12.862 3.73539 13.3162 2.44263 14.7487 2.44263C15.4301 2.44263 15.9891 2.82696 16.2861 3.49081C16.88 4.85345 16.2511 6.74017 15.203 8.22509C15.9017 8.38232 16.7752 8.60942 17.2993 8.76665C18.2601 9.06363 18.8891 9.76244 19.0288 10.6185C19.1511 11.4919 18.7144 12.3829 17.7885 13.0642C17.1072 14.8985 15.9367 17.7985 15.0807 18.2702C14.7487 18.4449 14.1722 18.5147 13.4909 18.5147ZM8.18014 16.2088C9.50784 16.7678 13.5957 17.3443 14.3644 17.0473C14.7662 16.6804 15.7969 14.3395 16.5132 12.3654C16.5656 12.2257 16.6529 12.1034 16.7752 12.016C17.3517 11.6317 17.6487 11.1775 17.5963 10.7932C17.5439 10.4787 17.2644 10.2166 16.8451 10.0769C15.9716 9.79736 13.8054 9.32569 13.7704 9.32569C13.5259 9.27328 13.3337 9.09857 13.2464 8.854C13.159 8.60942 13.2289 8.34739 13.4036 8.1727C14.9758 6.47814 15.2554 4.74862 14.9584 4.04983C14.871 3.84019 14.7662 3.8402 14.7138 3.8402C14.3644 3.8402 14.2072 4.08478 13.8403 5.13296C13.421 6.35584 11.9711 7.82329 10.2416 8.76665C9.40302 9.22086 8.56447 9.83231 8.1452 10.1468V16.2088H8.18014ZM5.41992 16.6979V9.72748C5.41992 9.09857 4.9133 8.59195 4.28439 8.59195C3.65548 8.59195 3.14886 9.09857 3.14886 9.72748V16.6979C3.14886 17.3268 3.65548 17.8334 4.28439 17.8334C4.89583 17.8334 5.41992 17.3093 5.41992 16.6979Z" fill="#B4BBC5"/>
</svg>
