<svg width="22" height="21" viewBox="0 0 22 21" fill="none" xmlns="http://www.w3.org/2000/svg">
<path d="M13.8122 18.5147C11.6459 18.5147 8.23932 17.7985 7.40077 17.2045C7.2086 17.0648 7.10379 16.8551 7.10379 16.628V9.79737C7.10379 9.58773 7.20861 9.3781 7.36584 9.25581C7.41825 9.22087 8.64112 8.26003 9.91641 7.54377C11.5062 6.67029 12.6067 5.44742 12.8688 4.67876C13.1832 3.73539 13.6375 2.44263 15.07 2.44263C15.7513 2.44263 16.3103 2.82696 16.6073 3.49081C17.2013 4.85345 16.5724 6.74017 15.5242 8.22509C16.223 8.38232 17.0965 8.60942 17.6205 8.76665C18.5814 9.06363 19.2103 9.76244 19.35 10.6185C19.4723 11.4919 19.0356 12.3829 18.1097 13.0642C17.4284 14.8985 16.2579 17.7985 15.4019 18.2702C15.07 18.4449 14.4935 18.5147 13.8122 18.5147ZM8.50137 16.2088C9.82907 16.7678 13.917 17.3443 14.6856 17.0473C15.0874 16.6804 16.1181 14.3395 16.8344 12.3654C16.8868 12.2257 16.9742 12.1034 17.0965 12.016C17.673 11.6317 17.9699 11.1775 17.9175 10.7932C17.8651 10.4787 17.5856 10.2166 17.1663 10.0769C16.2929 9.79736 14.1266 9.32569 14.0917 9.32569C13.8471 9.27328 13.6549 9.09857 13.5676 8.854C13.4802 8.60942 13.5501 8.34739 13.7248 8.1727C15.2971 6.47814 15.5766 4.74862 15.2796 4.04983C15.1923 3.84019 15.0874 3.8402 15.035 3.8402C14.6856 3.8402 14.5284 4.08478 14.1615 5.13296C13.7423 6.35584 12.2923 7.82329 10.5628 8.76665C9.72425 9.22086 8.8857 9.83231 8.46643 10.1468V16.2088H8.50137ZM5.74115 16.6979V9.72748C5.74115 9.09857 5.23453 8.59195 4.60562 8.59195C3.97671 8.59195 3.47009 9.09857 3.47009 9.72748V16.6979C3.47009 17.3268 3.97671 17.8334 4.60562 17.8334C5.21706 17.8334 5.74115 17.3093 5.74115 16.6979Z" fill="#B4BBC5"/>
</svg>
